<?xml version="1.0" encoding="utf-8"?>
<!-- Generator: Adobe Illustrator 25.1.0, SVG Export Plug-In . SVG Version: 6.00 Build 0)  -->
<svg version="1.1" id="Layer_1" xmlns="http://www.w3.org/2000/svg" xmlns:xlink="http://www.w3.org/1999/xlink" x="0px" y="0px"
	 width="51px" height="50.9px" viewBox="0 0 51 50.9" style="enable-background:new 0 0 51 50.9;" xml:space="preserve">
<style type="text/css">
	.st0{fill:#FFFFFF;}
</style>
<path class="st0" d="M31.4,50.9c3.2-0.2,4.9-1,7.5-4c2.6-3,3.4-3.4,6.5-6.2c3-2.8,3.2-8.5,3.2-10.6c0-2,0.6-9.7,2.3-17.4
	c1.7-7.6-6.3-6.4-7.4,2.7c-0.9,9.1-5.7,6.4-9.2,1.1S26,3.1,24.7,1.1S21,0.2,20.6,0.7c-0.5,0.4-2.1,1,0.5,5.5s6.1,11.4,6.6,12.4
	c0.4,1-0.7,1.1-1.7,0.2C24.9,17.9,13,7.1,11.3,5.6S8.2,4.6,7,5.8s-0.7,2.9,0.9,4.5C9.3,11.9,20,23.1,21.5,24.6
	c1.1,1.2-0.1,2.5-2.1,1.2c-1.9-1.2-12.6-8.7-13.8-9.5c-1.2-0.8-2.6-1.1-4.3,0.5s0.1,3.6,0.7,4.1s14.3,10.7,15.3,11.4
	c1,0.6,0.8,2.9-1.9,1.8c-2.7-1.1-9.7-4.2-11.2-4.7s-3.2-1.1-4,1.1s0.7,2.9,3.3,4.4c2.9,1.7,14.6,9.9,17.9,12.7
	C25.5,51,31.4,50.9,31.4,50.9z"/>
</svg>
